<?xml version="1.0" standalone="no"?>
<!DOCTYPE svg PUBLIC "-//W3C//DTD SVG 20010904//EN"
 "http://www.w3.org/TR/2001/REC-SVG-20010904/DTD/svg10.dtd">
<svg version="1.0" xmlns="http://www.w3.org/2000/svg"
 width="500.000000pt" height="500.000000pt" viewBox="0 0 500.000000 500.000000"
 preserveAspectRatio="xMidYMid meet">

<g transform="translate(0.000000,500.000000) scale(0.100000,-0.100000)"
fill="#000000" stroke="none">
<path d="M4050 4577 c0 -29 -122 -385 -166 -486 -76 -173 -108 -261 -155 -425
-51 -179 -88 -404 -54 -331 l13 30 1 -46 c1 -28 7 -51 16 -59 8 -7 15 -18 15
-24 0 -6 15 -36 33 -67 l32 -56 0 166 c1 194 17 288 94 556 95 329 190 729
177 742 -3 4 -6 3 -6 0z"/>
<path d="M3734 4208 l-19 -23 23 19 c21 18 27 26 19 26 -2 0 -12 -10 -23 -22z"/>
<path d="M3650 4118 c-136 -125 -258 -189 -442 -232 -87 -21 -181 -34 -553
-79 -16 -2 2 -5 41 -6 141 -2 484 55 645 109 114 38 233 116 329 214 58 60 49
58 -20 -6z"/>
<path d="M3665 3965 c-146 -116 -321 -177 -564 -196 -75 -5 -271 -9 -436 -7
l-300 2 -85 -28 c-47 -16 -89 -32 -93 -36 -4 -3 18 -12 50 -20 80 -17 339 -93
444 -128 47 -16 145 -60 216 -96 112 -57 130 -69 126 -86 -3 -11 -12 -20 -19
-20 -25 0 -15 -31 31 -91 70 -90 97 -169 57 -169 -12 0 -29 23 -54 73 -116
235 -334 353 -926 503 -202 51 -279 66 -387 75 -153 12 -164 10 -289 -54 -59
-30 -87 -52 -114 -89 -20 -26 -41 -48 -47 -48 -31 0 -67 139 -46 178 8 15 7
21 -4 25 -29 12 -111 -157 -150 -310 -15 -63 -15 -99 2 -143 9 -22 12 -15 29
58 10 46 20 80 21 75 2 -4 -3 -56 -10 -115 -12 -101 -12 -108 6 -123 17 -15
20 -15 33 2 7 10 14 23 14 28 0 12 38 86 51 99 5 6 -7 -28 -25 -75 -19 -46
-43 -124 -52 -174 -18 -93 -24 -280 -11 -370 7 -48 6 -49 -9 -27 -9 12 -23 22
-30 22 -18 0 -18 -28 0 -46 15 -15 59 -124 53 -130 -11 -11 -101 201 -118 277
-19 88 -38 125 -130 252 -23 32 -43 57 -44 55 -1 -2 10 -52 26 -113 15 -60 28
-121 28 -135 l0 -25 -14 25 c-21 36 -54 145 -65 215 -7 49 -8 35 -5 -75 2 -77
10 -158 19 -189 33 -119 224 -393 450 -646 149 -166 194 -205 361 -315 204
-133 430 -231 567 -245 62 -7 70 -5 126 25 88 46 163 119 233 223 60 90 169
304 204 402 23 64 54 135 60 135 2 0 -2 -21 -10 -47 -8 -27 -14 -48 -14 -48 0
0 -3 -9 -7 -19 -5 -12 -2 -23 7 -30 8 -6 16 -24 17 -39 2 -23 -2 -27 -21 -25
-12 2 -24 -1 -27 -7 -3 -5 5 -11 18 -13 12 -2 22 -8 22 -13 0 -6 -4 -8 -9 -4
-11 6 7 -66 20 -79 6 -6 9 -6 9 1 0 7 11 24 25 39 15 16 25 39 25 57 0 17 3
27 7 24 8 -9 42 51 68 118 10 27 20 45 22 39 7 -20 -67 -198 -124 -299 -80
-145 -157 -250 -244 -335 -88 -87 -159 -132 -258 -165 -117 -40 -372 -83 -348
-59 3 4 0 13 -8 20 -10 10 -41 14 -107 14 -286 0 -635 66 -887 166 -267 107
-481 237 -481 292 0 6 45 13 101 17 l101 7 49 -56 c42 -46 70 -65 172 -115
239 -116 404 -165 699 -208 199 -29 445 -42 434 -24 -4 6 -14 11 -21 11 -37 0
-218 66 -293 107 -85 46 -114 52 -66 14 37 -29 23 -28 -183 20 -328 76 -507
156 -663 295 -48 44 -53 46 -94 41 -64 -9 -289 -66 -299 -76 -5 -5 1 -150 13
-331 12 -177 19 -324 17 -326 -3 -3 -11 8 -18 25 -7 16 -17 27 -22 24 -4 -3
-15 3 -22 13 -11 15 -14 16 -15 4 0 -12 -4 -10 -15 4 -14 18 -14 10 -9 -75 8
-118 18 -160 46 -186 31 -28 175 -81 388 -141 96 -28 264 -78 373 -112 109
-34 200 -60 203 -58 2 2 -89 33 -201 68 -113 34 -205 66 -205 71 0 4 12 3 28
-2 15 -5 79 -25 142 -45 241 -74 521 -167 516 -171 -2 -2 -62 14 -132 36 -71
22 -130 39 -132 37 -2 -2 77 -30 175 -61 98 -31 261 -85 363 -120 102 -36 217
-74 255 -86 39 -12 95 -34 126 -49 82 -42 121 -47 159 -20 18 13 30 30 30 44
0 29 36 62 135 124 44 27 112 71 150 97 66 44 73 46 120 40 48 -5 54 -3 155
60 58 36 133 80 168 97 l62 31 106 -11 c105 -10 105 -10 149 16 65 39 68 60
45 266 -11 94 -26 206 -33 248 -8 42 -11 81 -8 85 18 26 252 242 356 327 187
155 272 232 528 475 131 125 240 236 244 249 5 22 -32 122 -45 122 -3 0 -13
-6 -21 -14 -9 -7 -83 -44 -166 -82 -82 -37 -291 -139 -463 -226 -292 -147
-688 -333 -722 -339 -8 -2 -39 10 -69 25 l-54 28 129 47 c126 46 286 117 332
147 l22 15 -26 50 c-14 28 -21 48 -15 45 6 -4 -7 42 -28 101 -25 70 -44 109
-55 111 -17 4 -52 105 -37 110 5 2 5 18 0 40 -58 250 -10 543 156 953 47 116
84 216 83 221 -2 5 -35 -16 -73 -47z m-1882 -451 c4 -4 -14 -20 -38 -36 -91
-61 -175 -162 -175 -213 0 -8 -5 -15 -11 -15 -6 0 -9 6 -6 14 3 8 9 32 13 53
13 73 58 128 144 177 46 26 62 31 73 20z m417 -101 c0 -5 -35 -48 -78 -97 -69
-79 -89 -95 -189 -151 l-113 -62 59 -12 c32 -6 83 -25 114 -42 44 -23 80 -33
169 -44 224 -29 421 -87 616 -181 l112 -54 0 -38 c0 -37 -23 -214 -38 -296
l-7 -40 -18 27 c-23 35 -52 35 -127 -3 -82 -41 -107 -39 -155 11 -80 83 -171
137 -294 176 -214 66 -335 129 -443 231 -174 164 -254 366 -183 462 l25 34 -6
-46 c-6 -45 -5 -48 41 -97 26 -28 51 -51 55 -51 5 0 37 37 73 83 37 45 74 87
84 93 55 34 149 78 191 89 53 15 112 19 112 8z m-594 -434 c37 -55 99 -135
139 -177 39 -43 86 -96 104 -120 27 -35 56 -54 145 -97 82 -39 136 -74 208
-135 54 -44 102 -88 106 -97 7 -12 21 -15 64 -11 l55 4 36 -75 c38 -82 57
-154 51 -198 -4 -23 -3 -24 4 -8 8 17 10 14 16 -17 13 -68 50 -63 84 13 31 66
38 57 13 -16 -48 -135 -140 -243 -254 -296 -59 -27 -87 -34 -158 -37 -144 -7
-258 37 -479 185 -141 95 -337 270 -367 327 -16 30 -16 31 3 16 10 -8 21 -17
24 -21 3 -3 23 -18 45 -35 37 -27 35 -23 -21 41 -72 82 -171 225 -180 259 -10
40 -1 59 31 68 17 4 35 6 41 4 6 -2 38 -49 72 -104 90 -147 208 -281 287 -327
58 -35 157 -58 208 -49 37 6 40 8 23 18 -188 113 -350 414 -377 701 -9 102 -5
285 6 285 2 0 34 -45 71 -101z m3074 -270 c0 -4 -7 -6 -15 -3 -8 4 -15 10 -15
15 0 4 7 6 15 3 8 -4 15 -10 15 -15z m-3375 -40 c4 -22 4 -43 1 -46 -9 -10
-36 64 -30 81 9 25 22 10 29 -35z m2145 -157 c29 -34 51 -64 49 -66 -6 -5
-143 -45 -146 -43 -1 2 5 44 14 95 9 51 20 89 23 85 4 -5 30 -36 60 -71z
m-1079 -105 c10 -18 6 -17 -20 7 -36 34 -39 41 -11 26 11 -6 25 -20 31 -33z
m266 -209 c-3 -8 -6 -5 -6 6 -1 11 2 17 5 13 3 -3 4 -12 1 -19z m10 -70 c-3
-7 -5 -2 -5 12 0 14 2 19 5 13 2 -7 2 -19 0 -25z m203 -2 c0 -8 -4 -18 -10
-21 -5 -3 -10 3 -10 14 0 12 5 21 10 21 6 0 10 -6 10 -14z m906 -25 c-26 -28
-12 -58 37 -82 23 -12 44 -23 46 -26 3 -2 -274 -280 -614 -619 -575 -571 -621
-614 -647 -609 -15 4 -30 15 -33 26 -8 23 -14 24 -45 2 -24 -17 -25 -17 -10 2
203 260 912 1007 1193 1256 74 66 109 90 73 50z m-3091 -256 c19 -15 18 -15
-12 -1 -17 9 -35 21 -39 27 -8 13 21 -1 51 -26z m2406 -91 c-30 -59 -176 -273
-225 -329 -14 -16 11 26 57 95 45 69 107 164 137 212 30 47 56 85 58 83 2 -2
-10 -29 -27 -61z m-1556 -214 c66 -12 136 -24 155 -27 19 -3 29 -8 23 -10 -18
-6 -219 24 -273 41 -64 20 -43 19 95 -4z m482 -36 c-3 -3 -12 -4 -19 -1 -8 3
-5 6 6 6 11 1 17 -2 13 -5z m-1171 -61 c-4 -5 -30 -13 -57 -19 -40 -9 -47 -9
-38 2 6 7 27 15 47 17 20 2 41 4 46 5 5 1 6 -1 2 -5z m112 -59 c27 -19 28 -34
2 -34 -11 0 -20 -4 -20 -9 0 -14 -63 -4 -115 20 l-50 23 40 6 c71 12 120 10
143 -6z m1866 -19 c-9 -14 -18 -25 -21 -25 -5 0 5 18 20 38 17 22 18 13 1 -13z
m-1595 -84 c292 -98 418 -123 658 -129 226 -5 341 6 531 53 142 35 346 100
372 119 9 6 8 2 -3 -11 -37 -43 -412 -151 -652 -189 -168 -26 -422 -15 -617
25 -137 29 -541 152 -562 172 -9 8 25 27 53 28 7 1 106 -30 220 -68z m-248
-140 c358 -110 577 -175 994 -296 361 -104 472 -141 453 -149 -14 -7 -288 68
-693 189 -44 13 -159 47 -255 76 -230 67 -663 202 -769 239 -78 27 -121 50
-95 50 6 0 170 -49 365 -109z m-7 -127 c26 -9 45 -18 43 -20 -2 -2 -28 5 -58
15 -30 11 -49 20 -43 20 6 1 32 -6 58 -15z m979 -310 c316 -96 562 -177 551
-181 -10 -3 -533 159 -679 211 -117 41 -64 29 128 -30z"/>
<path d="M2241 2316 c18 -40 -12 -107 -69 -154 -25 -20 -65 -56 -89 -80 -37
-37 -43 -48 -43 -85 0 -55 33 -112 90 -155 43 -33 47 -34 110 -29 65 5 150 33
150 49 0 4 -24 8 -53 8 -58 0 -97 20 -97 51 0 22 46 57 172 132 l89 52 -5 37
c-7 44 -41 136 -59 160 -10 12 -35 17 -100 21 -47 3 -91 8 -97 12 -6 4 -6 -3
1 -19z"/>
<path d="M2413 1830 c4 -17 0 -20 -26 -20 -30 -1 -67 -19 -67 -34 0 -19 78 3
112 32 14 12 15 18 7 29 -17 20 -32 16 -26 -7z"/>
<path d="M2806 2225 c4 -8 8 -15 10 -15 2 0 4 7 4 15 0 8 -4 15 -10 15 -5 0
-7 -7 -4 -15z"/>
<path d="M2769 2128 c-1 -2 -2 -17 -4 -34 -2 -27 0 -30 20 -26 18 3 25 -2 33
-25 l10 -28 1 27 c1 21 -5 29 -24 34 -26 7 -35 38 -12 47 7 3 5 6 -5 6 -10 1
-18 0 -19 -1z"/>
<path d="M2033 1523 c9 -2 23 -2 30 0 6 3 -1 5 -18 5 -16 0 -22 -2 -12 -5z"/>
</g>
</svg>
